<svg version="1.1" viewBox="0.0 0.0 400.0 400.0" fill="none" stroke="none" stroke-linecap="square" stroke-miterlimit="10" xmlns:xlink="http://www.w3.org/1999/xlink" xmlns="http://www.w3.org/2000/svg"><clipPath id="p.0"><path d="m0 0l400.0 0l0 400.0l-400.0 0l0 -400.0z" clip-rule="nonzero"/></clipPath><g clip-path="url(#p.0)"><path fill="#000000" fill-opacity="0.0" d="m0 0l400.0 0l0 400.0l-400.0 0z" fill-rule="evenodd"/><path fill="#424242" d="m0 0l0 4.082156E-19c0 -0.0018409492 0.0014923841 -0.0033333334 0.0033333334 -0.0033333334l399.99667 0.0033333334c8.8500977E-4 0 0.001739502 3.5118946E-4 0.0023498535 9.7631075E-4c6.4086914E-4 6.2512123E-4 9.765625E-4 0.0014729674 9.765625E-4 0.0023570226l-0.003326416 399.99667c0 0.0018310547 -0.0014953613 0.003326416 -0.003326416 0.003326416l-399.99667 -0.003326416l5.7418215E-19 0c-0.0018409492 0 -0.0033333334 -0.0014953613 -0.0033333334 -0.003326416z" fill-rule="evenodd"/><path fill="#f3f3f3" d="m15.259554 105.33596l389.5748 0l0 106.803154l-389.5748 0z" fill-rule="evenodd"/><path stroke="#f3f3f3" stroke-width="1.0" stroke-linejoin="round" stroke-linecap="butt" d="m15.259554 105.33596l389.5748 0l0 106.803154l-389.5748 0z" fill-rule="evenodd"/><path fill="#424242" d="m43.603302 177.48691q-7.6875 0 -12.656248 -4.90625q-4.96875 -4.921875 -4.96875 -12.578125q0 -7.59375 4.96875 -12.53125q4.968748 -4.9375 12.656248 -4.9375q7.75 0 12.71875 4.9375q4.96875 4.9375 4.96875 12.53125q0 7.609375 -4.96875 12.546875q-4.96875 4.9375 -12.71875 4.9375zm0 -6.390625q4.46875 0 7.375 -3.0625q2.921875 -3.0625 2.921875 -8.03125q0 -4.8125 -2.8125 -7.953125q-2.8125 -3.140625 -7.484375 -3.140625q-4.65625 0 -7.4375 3.140625q-2.78125 3.140625 -2.78125 7.953125q0 4.875 2.828125 7.984375q2.84375 3.109375 7.390625 3.109375zm22.75209 5.78125l0 -33.78125l15.796875 0q5.171875 0 8.265625 3.015625q3.09375 3.0 3.09375 7.875q0 4.8125 -3.171875 7.859375q-3.171875 3.03125 -8.1875 3.03125l-8.609375 0l0 12.0l-7.1875 0zm14.84375 -18.34375q2.125 0 3.546875 -1.203125q1.421875 -1.21875 1.421875 -3.34375q0 -2.140625 -1.421875 -3.34375q-1.421875 -1.21875 -3.546875 -1.21875l-7.65625 0l0 9.109375l7.65625 0zm16.765793 18.34375l0 -33.78125l23.90625 0l0 6.328125l-16.71875 0l0 7.140625l16.375 0l0 6.328125l-16.375 0l0 7.65625l16.71875 0l0 6.328125l-23.90625 0zm48.62639 0l-6.625 -12.0l-5.28125 0l0 12.0l-7.1875 0l0 -33.78125l15.796875 0q5.171875 0 8.265625 3.0625q3.09375 3.0625 3.09375 7.828125q0 3.9375 -2.109375 6.625q-2.09375 2.6875 -5.296875 3.40625l7.609375 12.859375l-8.265625 0zm-4.359375 -18.34375q2.1875 0 3.625 -1.203125q1.453125 -1.21875 1.453125 -3.34375q0 -2.140625 -1.453125 -3.34375q-1.4375 -1.21875 -3.625 -1.21875l-7.546875 0l0 9.109375l7.546875 0zm41.134506 18.34375l-2.078125 -5.71875l-14.484375 0l-2.125 5.71875l-8.203125 0l13.0625 -33.78125l9.015625 0l13.015625 33.78125l-8.203125 0zm-9.3125 -26.59375l-5.265625 14.53125l10.53125 0l-5.265625 -14.53125zm37.023926 27.203125q-7.84375 0 -12.921875 -4.984375q-5.0625 -5.0 -5.0625 -12.5q0 -4.953125 2.359375 -9.0q2.359375 -4.0625 6.5 -6.265625q4.15625 -2.203125 9.125 -2.203125q9.328125 0 14.140625 8.25l-6.1875 3.046875q-1.0625 -2.078125 -3.1875 -3.5q-2.125 -1.421875 -4.765625 -1.421875q-4.609375 0 -7.59375 3.171875q-2.984375 3.171875 -2.984375 7.921875q0 4.921875 3.03125 8.015625q3.046875 3.078125 7.546875 3.078125q2.640625 0 4.765625 -1.390625q2.125 -1.390625 3.1875 -3.515625l6.1875 2.984375q-4.8125 8.3125 -14.140625 8.3125zm18.441513 -0.609375l0 -33.78125l7.1875 0l0 33.78125l-7.1875 0zm29.879837 0.609375q-7.6875 0 -12.65625 -4.90625q-4.96875 -4.921875 -4.96875 -12.578125q0 -7.59375 4.96875 -12.53125q4.96875 -4.9375 12.65625 -4.9375q7.75 0 12.71875 4.9375q4.96875 4.9375 4.96875 12.53125q0 7.609375 -4.96875 12.546875q-4.96875 4.9375 -12.71875 4.9375zm0 -6.390625q4.46875 0 7.375 -3.0625q2.921875 -3.0625 2.921875 -8.03125q0 -4.8125 -2.8125 -7.953125q-2.8125 -3.140625 -7.484375 -3.140625q-4.65625 0 -7.4375 3.140625q-2.78125 3.140625 -2.78125 7.953125q0 4.875 2.828125 7.984375q2.84375 3.109375 7.390625 3.109375zm46.04898 5.78125l-16.109375 -22.03125l0 22.03125l-7.1875 0l0 -33.78125l7.390625 0l15.65625 21.21875l0 -21.21875l7.1875 0l0 33.78125l-6.9375 0zm36.928436 0l-2.078125 -5.71875l-14.484375 0l-2.125 5.71875l-8.203125 0l13.0625 -33.78125l9.015625 0l13.015625 33.78125l-8.203125 0zm-9.3125 -26.59375l-5.265625 14.53125l10.53125 0l-5.265625 -14.53125zm20.66455 26.59375l0 -33.78125l7.1875 0l0 27.453125l14.296875 0l0 6.328125l-21.484375 0z" fill-rule="nonzero"/><path fill="#000000" fill-opacity="0.0" d="m196.06824 222.42783l186.67715 0l0 161.70078l-186.67715 0z" fill-rule="evenodd"/><path fill="#f9c706" d="m250.03061 371.5382l0 -102.609375l-36.921875 0l0 -23.671875l100.71875 0l0 23.671875l-36.734375 0l0 102.609375l-27.0625 0zm81.032745 0l0 -126.28125l26.875 0l0 126.28125l-26.875 0z" fill-rule="nonzero"/></g></svg>